<mxfile host="app.diagrams.net" agent="Mozilla/5.0 (Macintosh; Intel Mac OS X 10_15_7) AppleWebKit/537.36 (KHTML, like Gecko) Chrome/114.0.0.0 Safari/537.36" version="27.1.5">
  <diagram name="第 1 页" id="qdjcT8FkumV6QNcneG0c">
    <mxGraphModel dx="946" dy="596" grid="1" gridSize="10" guides="1" tooltips="1" connect="1" arrows="1" fold="1" page="1" pageScale="1" pageWidth="980" pageHeight="1390" math="0" shadow="0">
      <root>
        <mxCell id="0" />
        <mxCell id="1" parent="0" />
        <mxCell id="uI-gs6NZz2yKR1_CQE_a-2" value="" style="rounded=0;whiteSpace=wrap;html=1;" vertex="1" parent="1">
          <mxGeometry x="150" y="110" width="230" height="400" as="geometry" />
        </mxCell>
        <mxCell id="uI-gs6NZz2yKR1_CQE_a-3" value="" style="rounded=0;whiteSpace=wrap;html=1;" vertex="1" parent="1">
          <mxGeometry x="560" y="110" width="230" height="400" as="geometry" />
        </mxCell>
        <mxCell id="uI-gs6NZz2yKR1_CQE_a-4" value="pbs区" style="text;html=1;align=center;verticalAlign=middle;resizable=0;points=[];autosize=1;strokeColor=none;fillColor=none;" vertex="1" parent="1">
          <mxGeometry x="220" y="60" width="50" height="30" as="geometry" />
        </mxCell>
        <mxCell id="uI-gs6NZz2yKR1_CQE_a-5" value="slt区" style="text;html=1;align=center;verticalAlign=middle;resizable=0;points=[];autosize=1;strokeColor=none;fillColor=none;" vertex="1" parent="1">
          <mxGeometry x="650" y="60" width="50" height="30" as="geometry" />
        </mxCell>
        <mxCell id="uI-gs6NZz2yKR1_CQE_a-7" value="" style="rounded=0;whiteSpace=wrap;html=1;" vertex="1" parent="1">
          <mxGeometry x="185" y="200" width="120" height="60" as="geometry" />
        </mxCell>
        <mxCell id="uI-gs6NZz2yKR1_CQE_a-8" value="" style="rounded=0;whiteSpace=wrap;html=1;" vertex="1" parent="1">
          <mxGeometry x="185" y="320" width="120" height="60" as="geometry" />
        </mxCell>
        <mxCell id="uI-gs6NZz2yKR1_CQE_a-10" value="" style="rounded=0;whiteSpace=wrap;html=1;" vertex="1" parent="1">
          <mxGeometry x="615" y="320" width="120" height="60" as="geometry" />
        </mxCell>
        <mxCell id="uI-gs6NZz2yKR1_CQE_a-11" value="hyper1" style="text;html=1;align=center;verticalAlign=middle;whiteSpace=wrap;rounded=0;" vertex="1" parent="1">
          <mxGeometry x="215" y="170" width="60" height="30" as="geometry" />
        </mxCell>
        <mxCell id="uI-gs6NZz2yKR1_CQE_a-12" value="hyper2" style="text;html=1;align=center;verticalAlign=middle;whiteSpace=wrap;rounded=0;" vertex="1" parent="1">
          <mxGeometry x="215" y="280" width="60" height="30" as="geometry" />
        </mxCell>
        <mxCell id="uI-gs6NZz2yKR1_CQE_a-13" value="" style="ellipse;whiteSpace=wrap;html=1;aspect=fixed;" vertex="1" parent="1">
          <mxGeometry x="630" y="170" width="80" height="80" as="geometry" />
        </mxCell>
        <mxCell id="uI-gs6NZz2yKR1_CQE_a-14" value="border" style="text;html=1;align=center;verticalAlign=middle;whiteSpace=wrap;rounded=0;" vertex="1" parent="1">
          <mxGeometry x="720" y="190" width="60" height="30" as="geometry" />
        </mxCell>
        <mxCell id="uI-gs6NZz2yKR1_CQE_a-15" value="vm1" style="rounded=0;whiteSpace=wrap;html=1;" vertex="1" parent="1">
          <mxGeometry x="215" y="210" width="50" height="35" as="geometry" />
        </mxCell>
        <mxCell id="uI-gs6NZz2yKR1_CQE_a-17" value="vm2" style="rounded=0;whiteSpace=wrap;html=1;" vertex="1" parent="1">
          <mxGeometry x="660" y="332.5" width="50" height="35" as="geometry" />
        </mxCell>
        <mxCell id="uI-gs6NZz2yKR1_CQE_a-18" value="图中的vm在vpc内部，vpc加入了border" style="text;html=1;align=center;verticalAlign=middle;whiteSpace=wrap;rounded=0;" vertex="1" parent="1">
          <mxGeometry x="215" y="420" width="105" height="30" as="geometry" />
        </mxCell>
        <mxCell id="uI-gs6NZz2yKR1_CQE_a-20" value="图中的vm在vpc内部，vpc加入了border" style="text;html=1;align=center;verticalAlign=middle;whiteSpace=wrap;rounded=0;" vertex="1" parent="1">
          <mxGeometry x="622.5" y="430" width="105" height="30" as="geometry" />
        </mxCell>
        <mxCell id="uI-gs6NZz2yKR1_CQE_a-26" value="" style="rhombus;whiteSpace=wrap;html=1;" vertex="1" parent="1">
          <mxGeometry x="435" y="170" width="80" height="80" as="geometry" />
        </mxCell>
        <mxCell id="uI-gs6NZz2yKR1_CQE_a-21" value="" style="curved=1;endArrow=classic;html=1;rounded=0;entryX=1;entryY=0.25;entryDx=0;entryDy=0;dashed=1;" edge="1" parent="1" target="uI-gs6NZz2yKR1_CQE_a-15">
          <mxGeometry width="50" height="50" relative="1" as="geometry">
            <mxPoint x="300" y="350" as="sourcePoint" />
            <mxPoint x="350" y="300" as="targetPoint" />
            <Array as="points">
              <mxPoint x="480" y="330" />
              <mxPoint x="610" y="290" />
              <mxPoint x="660" y="240" />
              <mxPoint x="660" y="210" />
              <mxPoint x="610" y="190" />
            </Array>
          </mxGeometry>
        </mxCell>
        <mxCell id="uI-gs6NZz2yKR1_CQE_a-27" value="客户的安全设备" style="text;html=1;align=center;verticalAlign=middle;resizable=0;points=[];autosize=1;strokeColor=none;fillColor=none;" vertex="1" parent="1">
          <mxGeometry x="420" y="128" width="110" height="30" as="geometry" />
        </mxCell>
      </root>
    </mxGraphModel>
  </diagram>
</mxfile>
